<svg xmlns="http://www.w3.org/2000/svg" xmlns:xlink="http://www.w3.org/1999/xlink" width="364" height="730" viewBox="0 0 364 730">
  <defs>
    <linearGradient id="linear-gradient" x1="-6.799" y1="4.122" x2="-5.741" y2="3.609" gradientUnits="objectBoundingBox">
      <stop offset="0" stop-color="#fff"/>
      <stop offset="0.47" stop-color="#77bf8e"/>
      <stop offset="1" stop-color="#6cba7f"/>
    </linearGradient>
  </defs>
  <g id="Group_342" data-name="Group 342" transform="translate(4)">
    <rect id="Rectangle_113" data-name="Rectangle 113" width="364" height="730" transform="translate(-4)" fill="#6cba7f"/>
    <path id="Path_463" data-name="Path 463" d="M531.564,146.924A101.681,101.681,0,0,0,435.2,280.86h32.358a71.84,71.84,0,1,1,128.706,0h31.654a101.681,101.681,0,0,0-96.359-133.936Z" transform="matrix(1, 0.017, -0.017, 1, -283.515, 437.837)" fill="#fff" opacity="0.2"/>
    <path id="Path_484" data-name="Path 484" d="M1143.694,415.982h0a67.574,67.574,0,1,1,77.751-109.043q.345-17.236.488-34.473c-.61-.338-1.228-.675-1.846-1a95.562,95.562,0,1,0-.531,169.435q-.216-16.849-.072-33.7a67.589,67.589,0,0,1-75.791,8.776Z" transform="translate(-862.289 255.607)" opacity="0.75" fill="url(#linear-gradient)"/>
  </g>
</svg>
