<svg xmlns="http://www.w3.org/2000/svg" xmlns:xlink="http://www.w3.org/1999/xlink" width="362" height="2548.769" viewBox="0 0 362 2548.769">
  <defs>
    <linearGradient id="linear-gradient" x1="0.151" y1="0.315" x2="0.974" y2="1.132" gradientUnits="objectBoundingBox">
      <stop offset="0" stop-color="#6cba7f"/>
      <stop offset="0.381" stop-color="#66b677"/>
      <stop offset="0.971" stop-color="#56ab61"/>
      <stop offset="1" stop-color="#56ab60"/>
    </linearGradient>
    <linearGradient id="linear-gradient-2" x1="-5.554" y1="-3.084" x2="-4.717" y2="-2.537" gradientUnits="objectBoundingBox">
      <stop offset="0" stop-color="#7ec396"/>
      <stop offset="0.471" stop-color="#77bf8e"/>
      <stop offset="1" stop-color="#6cba7f"/>
    </linearGradient>
  </defs>
  <g id="Group_345" data-name="Group 345" transform="translate(0 -2424)">
    <rect id="Rectangle_180" data-name="Rectangle 180" width="362" height="2541" transform="translate(0 2424)" fill="#fff"/>
    <path id="Path_469" data-name="Path 469" d="M48.2,0A48.238,48.238,0,0,0,2.491,63.54H17.842a34.081,34.081,0,1,1,61.059,0H93.918A48.238,48.238,0,0,0,48.2,0Z" transform="translate(243.03 4909.229)" opacity="0.75" fill="url(#linear-gradient)"/>
    <path id="Path_468" data-name="Path 468" d="M602.161-33.731a32.6,32.6,0,0,0-14.407-43.793,32.6,32.6,0,0,0-43.793,14.407,32.6,32.6,0,0,0,14.407,43.793A32.6,32.6,0,0,0,602.161-33.731ZM552.332-58.763A23.05,23.05,0,0,1,583.3-68.95a23.05,23.05,0,0,1,10.187,30.965A23.05,23.05,0,0,1,562.519-27.8,23.049,23.049,0,0,1,552.332-58.763Z" transform="translate(-286.801 4957.676)" opacity="0.24" fill="url(#linear-gradient-2)"/>
  </g>
</svg>
