<svg id="Layer_1" xmlns="http://www.w3.org/2000/svg" viewBox="0 0 104.77 88.26">
    <defs>
        <style>
            .cls-1{fill:#6CBA7F;}
            .cls-2{fill:#fff;}
            .cls-3{fill:#389074;}
            .cls-4,.cls-5{fill:none;}
            .cls-4{stroke:#707070;}
        </style>
    </defs>
    <title>feature1icon</title>
    <rect id="Rectangle_9" class="cls-1" width="95.38" height="84.84" rx="5.12"/>
    <rect id="Rectangle_10" class="cls-2" x="8.26" y="19.93" width="79.43" height="54.95"
          rx="4.56"/>
    <ellipse id="Ellipse_6" class="cls-3" cx="61.21" cy="11.53" rx="3.7" ry="3.84"/>
    <ellipse id="Ellipse_7" class="cls-3" cx="70.46" cy="11.53" rx="3.56" ry="3.84"/>
    <ellipse id="Ellipse_8" class="cls-3" cx="79.57" cy="11.53" rx="3.56" ry="3.84"/>
    <rect id="Rectangle_16" class="cls-2" x="70.32" y="28.19" width="15.94" height="42.71"/>
    <circle id="Ellipse_9" class="cls-3" cx="70.18" cy="49.11" r="16.09"/>
    <rect id="Rectangle_17" class="cls-2" x="85.7" y="61.5" width="19.08" height="26.76"/>
    <rect id="Rectangle_15" class="cls-1" x="99.83" y="79.68" width="4.85" height="27.96"
          rx="1.42" transform="translate(-47.38 65.22) rotate(-39)"/>
    <circle id="Ellipse_10" class="cls-2" cx="70.18" cy="49.4" r="9.82"/>
    <path id="Path_15" class="cls-4" d="M34.86,85.2" transform="translate(-11.23 -20)"/>
    <ellipse id="Ellipse_16" class="cls-1" cx="27.76" cy="41" rx="13.24" ry="13.38"/>
    <path id="Path_17" class="cls-1"
          d="M38.93,89.05c1.47-.54,12.16-20,12.28-23.26s-24.62,0-24.62,0S37.47,89.58,38.93,89.05Z"
          transform="translate(-11.23 -20)"/>
    <ellipse class="cls-3" cx="27.9" cy="41" rx="6.55" ry="6.83"/>
    <ellipse class="cls-5" cx="27.9" cy="41" rx="6.41" ry="6.69"/>
</svg>