<svg id="Layer_1" data-name="Layer 1" xmlns="http://www.w3.org/2000/svg" viewBox="0 0 113.66 100.08"><defs><style>.cls-1,.cls-4{fill:#1dbc78;}.cls-2,.cls-3{isolation:isolate;}.cls-3{font-size:13.33px;fill:#fff;font-family:Roboto-Regular, Roboto;}.cls-4{stroke:#fff;stroke-width:3px;}</style></defs><title>123</title><g id="Group_25" data-name="Group 25"><rect id="Rectangle_49" data-name="Rectangle 49" class="cls-1" x="0.15" y="79.11" width="84.56" height="20.83"/><path id="Path_28" data-name="Path 28" class="cls-1" d="M34.56,32.35h0a28.48,28.48,0,0,1,.79-5.66,26.81,26.81,0,0,1,2.38-6.22c1-1.89,1.59-2.92,2.83-3.85a10.52,10.52,0,0,1,4-1.58,31.08,31.08,0,0,1,5.43-.9,41.68,41.68,0,0,1,7.24,0c2.84.23,4.26.34,5.88,1a11.81,11.81,0,0,1,4.42,3.06,12.46,12.46,0,0,1,2.82,6.11c.15.85.57,3.69.79,5.88a19.15,19.15,0,0,0,1.1,3.85c.43.75-.23.22.64-.12s1.46,1.38,1.66,2.23.33,1.29.15,4.41c-.15,2.67-.7,3.34-1.17,4a3.42,3.42,0,0,1-1.81,1.06c-.12.35-.31.87-.54,1.5-.74,2-1.6,4.22-2,5.06-1.33,3-3.75,5.05-5.65,6.68a30.26,30.26,0,0,1-7.27,4.41,6.87,6.87,0,0,1-3,.85,9.39,9.39,0,0,1-3-.54,18.65,18.65,0,0,1-2.49-.93,25.28,25.28,0,0,1-7.58-5.89,29.5,29.5,0,0,1-4.13-6,22.21,22.21,0,0,1-2-5.21c0-.21-.09-.39-.11-.51a5.59,5.59,0,0,1-1.22-1.16,6,6,0,0,1-.9-1.76,9.55,9.55,0,0,1-.48-4.24,6.94,6.94,0,0,1,.85-3.08,5.14,5.14,0,0,1,2.12-2" transform="translate(-6.66 -13.98)"/><path id="Path_30" data-name="Path 30" class="cls-1" d="M6.66,89.18l83.23-.34,21.87-.08c0-3.51.07-7,.1-10.53L86.3,77.88c-.09-2.38-.11-2.58-.11-2.58a13.26,13.26,0,0,0-.92-4,10.68,10.68,0,0,0-2.67-3.86,12,12,0,0,0-4.11-2.1,24.87,24.87,0,0,0-6.36-1.88,9.47,9.47,0,0,1-3.39-.82,8.46,8.46,0,0,1-1.95-1.29c-.45.45-1.12,1.1-2,1.88-2.31,2.14-2.87,2.37-3.69,3.51-.19.26-.71,1.42-1.75,3.74a40.32,40.32,0,0,0-2,4.8,26.83,26.83,0,0,0-.72,3l-1.33.12a29.15,29.15,0,0,1-.31-4.68c.15-1.28.41-1.34.62-2.93a15.85,15.85,0,0,0,.1-2.92H50.15a8.18,8.18,0,0,0,.11,1.64c.27,1.66.9,2.19,1.13,3.74a10.63,10.63,0,0,1,0,2.11A22.08,22.08,0,0,1,50.87,79c-1.26-2.47-2.17-4.54-2.77-6-1.3-3.09-1.59-4.26-2.87-6.21A16.42,16.42,0,0,0,42,63.25a14.51,14.51,0,0,0-2.67-1.76A32.06,32.06,0,0,1,33.11,64c-1.89.53-2.58.52-4.42,1.17a13.94,13.94,0,0,0-5,2.58A11.22,11.22,0,0,0,20,73.55a12.13,12.13,0,0,0-.21,4.8l-13.1-.1" transform="translate(-6.66 -13.98)"/><g id="HIRING" class="cls-2"><text class="cls-3" transform="translate(3.77 95.64)">HIRING</text></g><path id="Path_29" data-name="Path 29" class="cls-4" d="M64.27,114c0-.77-.07-1.92-.11-3.31a41.36,41.36,0,0,1,.11-7.33,10,10,0,0,1,1.27-4.24,8.82,8.82,0,0,1,2.92-2.81,12.26,12.26,0,0,1,3.31-1.21c.47-.13,1.49-.35,3.53-.77a20.18,20.18,0,0,0,3.24-.89,4.68,4.68,0,0,0,1.71-.93,4,4,0,0,0,1.11-1.77c.06-.22.58-1.13,0-1.87a8.4,8.4,0,0,1-1.31-2.31s-2.11-5-2.22-5.07A4.22,4.22,0,0,1,76.13,80c-.18-.34-.73-1-.91-3.64-.13-2.08.14-2.48.25-2.77a4.25,4.25,0,0,1,2.36-1.94c.07-.93.19-2.15.39-3.58A15.79,15.79,0,0,1,79,64.35a10.81,10.81,0,0,1,1.93-3.14,9,9,0,0,1,3-2.43A11.1,11.1,0,0,1,87.47,58a31.44,31.44,0,0,1,3.75-.22,22.16,22.16,0,0,1,5.29.33,9.91,9.91,0,0,1,4.14,1.66c1.79,1.38,2.42,3.25,3.36,6.06a28.06,28.06,0,0,1,1.26,5.73,5.84,5.84,0,0,1,1.11,1,5.61,5.61,0,0,1,.82,1.32,6.18,6.18,0,0,1,.18,3.8,8,8,0,0,1-1.23,2.92c-.46.75-.67.94-1,1.55-.48.93-1.32,1.2-1.75,2.23a13.33,13.33,0,0,1-1.24,2.44c-.83,1.24-.39,1.43-.53,2.1a3.33,3.33,0,0,0,.27,2,4.8,4.8,0,0,0,2.26,2.21,13.33,13.33,0,0,0,3.58,1.1c2.86.67,3,.6,3.92.93a11,11,0,0,1,3.41,1.71,9.35,9.35,0,0,1,2.43,2.81,9.56,9.56,0,0,1,1,3.81,75.33,75.33,0,0,1,.16,10.19" transform="translate(-6.66 -13.98)"/></g></svg>