<svg xmlns="http://www.w3.org/2000/svg" xmlns:xlink="http://www.w3.org/1999/xlink" width="755.697" height="505.429" viewBox="0 0 755.697 505.429">
  <defs>
    <linearGradient id="linear-gradient" x1="0.151" y1="0.315" x2="0.974" y2="1.132" gradientUnits="objectBoundingBox">
      <stop offset="0" stop-color="#6cba7f"/>
      <stop offset="0.381" stop-color="#66b677"/>
      <stop offset="0.971" stop-color="#56ab61"/>
      <stop offset="1" stop-color="#56ab60"/>
    </linearGradient>
  </defs>
  <path id="Path_426" data-name="Path 426" d="M803.561,146.924c-206.337,0-373.608,167.272-373.608,373.608a373.337,373.337,0,0,0,19.31,118.855H568.24a262.837,262.837,0,0,1-27.568-117.56c0-145.9,118.288-264.145,264.185-264.145S1069,375.931,1069,521.828a263.351,263.351,0,0,1-27.528,117.56h116.385a373.334,373.334,0,0,0,19.31-118.855C1177.17,314.2,1009.9,146.924,803.561,146.924Z" transform="matrix(1, 0.017, -0.017, 1, -418.729, -154.405)" fill="url(#linear-gradient)"/>
</svg>
