<svg xmlns="http://www.w3.org/2000/svg" xmlns:xlink="http://www.w3.org/1999/xlink" width="505.429" height="755.698"
     viewBox="0 0 505.429 755.698">
    <defs>
        <linearGradient id="linear-gradient" x1="0.151" y1="0.315" x2="0.974" y2="1.132"
                        gradientUnits="objectBoundingBox">
            <stop offset="0" stop-color="#6cba7f"/>
            <stop offset="0.381" stop-color="#66b677"/>
            <stop offset="0.971" stop-color="#56ab61"/>
            <stop offset="1" stop-color="#56ab60"/>
        </linearGradient>
    </defs>
    <path id="Path_437" data-name="Path 437"
          d="M373.608,0C167.272,0,0,167.271,0,373.608A373.337,373.337,0,0,0,19.31,492.463H138.286A262.837,262.837,0,0,1,110.718,374.9c0-145.9,118.289-264.145,264.185-264.145S639.049,229.006,639.049,374.9a263.351,263.351,0,0,1-27.528,117.56H727.907a373.334,373.334,0,0,0,19.31-118.855C747.217,167.271,579.945,0,373.608,0Z"
          transform="matrix(-0.017, -1, 1, -0.017, 13.041, 755.698)" fill="url(#linear-gradient)"/>
</svg>
