<svg xmlns="http://www.w3.org/2000/svg" width="746.134" height="537.067" viewBox="0 0 746.134 537.067">
  <defs>
    <style>
      .cls-1 {
        fill: #3f3d56;
      }

      .cls-2 {
        fill: #fff;
      }

      .cls-3, .cls-5 {
        fill: #01714e;
      }

      .cls-3 {
        opacity: 0.4;
      }

      .cls-4 {
        fill: #2f2e41;
      }

      .cls-6 {
        fill: #ffb8b8;
      }

      .cls-7 {
        opacity: 0.1;
      }

      .cls-8 {
        fill: #d0cde1;
      }
    </style>
  </defs>
  <g id="undraw_reading_0re1_1_" data-name="undraw_reading_0re1 (1)" transform="translate(0 0)">
    <ellipse id="Ellipse_77" data-name="Ellipse 77" class="cls-1" cx="189.459" cy="23.774" rx="189.459" ry="23.774" transform="translate(177.755 489.519)"/>
    <path id="Path_249" data-name="Path 249" class="cls-2" d="M780.663,461.7l-73.245,34.664L772.24,447.89a365.8,365.8,0,0,0-35.393-46.574L419.206,480.268l286.92-109.45a365.738,365.738,0,0,0-41.665-31.758L180.449,417.022a362.738,362.738,0,0,0-79.443,226.372H829.574A362.542,362.542,0,0,0,780.663,461.7Z" transform="translate(-92.955 -151.68)"/>
    <path id="Path_250" data-name="Path 250" class="cls-2" d="M655.8,294.816A362.806,362.806,0,0,0,496.244,258.1c-112.527,0-213.132,51.024-279.954,131.194C330.716,364.22,529.942,320.819,655.8,294.816Z" transform="translate(-123.908 -129.941)"/>
    <circle id="Ellipse_78" data-name="Ellipse 78" class="cls-3" cx="10.914" cy="10.914" r="10.914" transform="translate(592.635 178.077)"/>
    <circle id="Ellipse_79" data-name="Ellipse 79" class="cls-3" cx="7.656" cy="7.656" r="7.656" transform="translate(575.693 186.548)"/>
    <circle id="Ellipse_80" data-name="Ellipse 80" class="cls-3" cx="22.858" cy="22.858" r="22.858" transform="translate(64.01 195.056)"/>
    <circle id="Ellipse_81" data-name="Ellipse 81" class="cls-3" cx="16.035" cy="16.035" r="16.035" transform="translate(28.529 212.796)"/>
    <rect id="Rectangle_131" data-name="Rectangle 131" class="cls-4" width="746.134" height="1.463" transform="translate(0 490.982)"/>
    <path id="Path_251" data-name="Path 251" class="cls-1" d="M973.111,722.415,915,636.1s88.005,30.723,78.018,86.317Z" transform="translate(-311.51 -231.433)"/>
    <path id="Path_252" data-name="Path 252" class="cls-5" d="M989.962,722.415l58.111-86.317s-88.005,30.723-78.018,86.317Z" transform="translate(-326.08 -231.433)"/>
    <path id="Path_253" data-name="Path 253" class="cls-2" d="M259.605,207.531c0-4.752-6.777-8.605-15.136-8.605-.165,0-.329,0-.493.007-2.522-7.73-14.442-13.584-28.769-13.584-12.19,0-22.637,4.238-27.036,10.263a38.336,38.336,0,0,0-9.962-1.276c-12.817,0-23.208,5.907-23.208,13.194,0,6.62,8.575,12.1,19.753,13.048,8.123,1.485,20.812,2.441,35.072,2.441,24.21,0,41.925-4.618,42.37-8.09C256.631,213.43,259.605,210.679,259.605,207.531Z" transform="translate(-107.452 -110.409)"/>
    <path id="Path_254" data-name="Path 254" class="cls-2" d="M759.605,212.531c0-4.752-6.777-8.605-15.136-8.605-.165,0-.329,0-.493.007-2.522-7.73-14.442-13.584-28.769-13.584-12.19,0-22.637,4.238-27.036,10.263a38.335,38.335,0,0,0-9.962-1.276c-12.817,0-23.208,5.907-23.208,13.195,0,6.62,8.575,12.1,19.753,13.048,8.123,1.485,20.812,2.441,35.072,2.441,24.21,0,41.925-4.618,42.37-8.09C756.631,218.43,759.605,215.679,759.605,212.531Z" transform="translate(-241.701 -111.751)"/>
    <path id="Path_255" data-name="Path 255" class="cls-2" d="M1009.607,121.837c0-8.342-11.895-15.1-26.567-15.1-.29,0-.578.007-.866.012-4.426-13.568-25.35-23.843-50.5-23.843-21.4,0-39.734,7.439-47.455,18.014a67.289,67.289,0,0,0-17.486-2.239c-22.5,0-40.736,10.369-40.736,23.16,0,11.619,15.05,21.238,34.672,22.9,14.258,2.607,36.529,4.285,61.56,4.285,42.5,0,73.589-8.106,74.369-14.2C1004.384,132.191,1009.607,127.362,1009.607,121.837Z" transform="translate(-287.613 -82.902)"/>
    <path id="Path_256" data-name="Path 256" class="cls-4" d="M617.315,362.952c-15.131-25.566-45.066-26.758-45.066-26.758s-29.17-3.73-47.883,35.208c-17.441,36.293-41.513,71.335-3.875,79.831l6.8-21.16,4.21,22.735a147.264,147.264,0,0,0,16.1.275c40.307-1.3,78.693.381,77.457-14.083C623.418,419.774,631.874,387.553,617.315,362.952Z" transform="translate(-200.234 -150.884)"/>
    <path id="Path_257" data-name="Path 257" class="cls-4" d="M522.624,673.958a59.682,59.682,0,0,1-1.93,8.309c-.947,2.662-2.409,5.125-3.274,7.815-2.76,8.574,1.066,18.134,7.176,24.752a40.392,40.392,0,0,0,19.693,11.694c5.512,1.386,11.243,1.586,16.924,1.779,15.729.533,31.863,1.011,46.768-4.044a81.254,81.254,0,0,0,13.587-6.173,10.173,10.173,0,0,0,3.526-2.776c1.137-1.618,1.282-3.717,1.272-5.7-.033-6.668-1.385-13.3-1.064-19.962.178-3.689.868-7.376.528-11.053a20.391,20.391,0,0,0-15.584-17.565c-4.228-.908-8.613-.413-12.918,0a329.389,329.389,0,0,1-33.62,1.5c-11.469-.073-22.867-1.824-34.279-2.007-3.375-.054-3.307.986-4.381,4.253a79.573,79.573,0,0,0-2.424,9.171Z" transform="translate(-204.516 -237.992)"/>
    <path id="Path_258" data-name="Path 258" class="cls-6" d="M564.333,448.757c-.551,2.886-1.147,5.877-2.881,8.249-2,2.729-5.249,4.288-7.4,6.9-3.231,3.931-3.416,9.461-3.43,14.549-.012,4.687.083,9.686,2.7,13.577,1.7,2.525,4.278,4.3,6.8,6,9.8,6.606,20.395,13.33,32.213,13.548,4.9.09,10.147-1.174,13.369-4.863a20.075,20.075,0,0,0,3.237-5.775,76.686,76.686,0,0,0,5.428-23.345,27.415,27.415,0,0,0-1.034-11.215c-1.436-4-4.339-7.3-6.257-11.092a24.693,24.693,0,0,1-2.377-14.612,1.577,1.577,0,0,0-.083-1.059,1.543,1.543,0,0,0-1.271-.515l-23.434-1.687a50.992,50.992,0,0,1-6.506-.744c-1.263-.257-4.6-2.051-5.8-1.574C565.375,435.977,564.789,446.365,564.333,448.757Z" transform="translate(-213.677 -177.443)"/>
    <path id="Path_259" data-name="Path 259" class="cls-7" d="M564.333,448.757c-.551,2.886-1.147,5.877-2.881,8.249-2,2.729-5.249,4.288-7.4,6.9-3.231,3.931-3.416,9.461-3.43,14.549-.012,4.687.083,9.686,2.7,13.577,1.7,2.525,4.278,4.3,6.8,6,9.8,6.606,20.395,13.33,32.213,13.548,4.9.09,10.147-1.174,13.369-4.863a20.075,20.075,0,0,0,3.237-5.775,76.686,76.686,0,0,0,5.428-23.345,27.415,27.415,0,0,0-1.034-11.215c-1.436-4-4.339-7.3-6.257-11.092a24.693,24.693,0,0,1-2.377-14.612,1.577,1.577,0,0,0-.083-1.059,1.543,1.543,0,0,0-1.271-.515l-23.434-1.687a50.992,50.992,0,0,1-6.506-.744c-1.263-.257-4.6-2.051-5.8-1.574C565.375,435.977,564.789,446.365,564.333,448.757Z" transform="translate(-213.677 -177.443)"/>
    <circle id="Ellipse_82" data-name="Ellipse 82" class="cls-6" cx="34.381" cy="34.381" r="34.381" transform="translate(338.686 205.696)"/>
    <path id="Path_260" data-name="Path 260" class="cls-8" d="M571.4,507.943a21.086,21.086,0,0,0,6.039,4.825,18.976,18.976,0,0,0,7.544,1.436c6.2.174,12.916-.961,17.227-5.417,5.557-5.743,5.374-15.007,9.73-21.708a4.836,4.836,0,0,1,1.4-1.535,4.55,4.55,0,0,1,2.387-.549c5.5-.051,10.294,3.517,14.619,6.917a19.258,19.258,0,0,1,5.146,5.242,17.765,17.765,0,0,1,1.735,5.314c2.146,10.477,2.841,21.19,3.531,31.863.381,5.9.762,11.8.734,17.7-.093,19.462-4.617,38.6-9.115,57.534-.58,2.44-1.373,5.167-3.592,6.336a8.857,8.857,0,0,1-3.134.765c-12.884,1.513-25.8,3.028-38.767,3.228q-7.593.117-15.179-.368a8.177,8.177,0,0,1-2.557-.446,7.21,7.21,0,0,1-2.788-2.367c-7.016-8.842-7.43-21.065-7.386-32.352q.165-41.394,2.958-82.722c.154-2.274.187-5.036-1.451-6.825C563.433,499.541,567.537,503.908,571.4,507.943Z" transform="translate(-215.918 -190.861)"/>
    <path id="Path_261" data-name="Path 261" class="cls-5" d="M546.523,460.97c-1.161,2.1-9.722,7.321-11.375,9.064-9.234,9.734-26.088,9.368-34.534,19.794-2.971,3.668-4.515,8.277-5.651,12.859-1.606,6.48-2.463,13.548.227,19.658,2.588,5.88,8.037,9.944,11.737,15.2,4.062,5.767,5.888,12.768,7.639,19.6,1.292,5.045,2.6,10.215,2.092,15.4-.572,5.894-3.424,11.29-5.108,16.967s-1.975,12.439,1.919,16.9c2.86,3.278,7.347,4.577,11.636,5.308a133.68,133.68,0,0,0,16.584,1.444c4.9.217,10.306.259,14.075-2.884,2.974-2.48,4.266-6.5,4.433-10.372s-.638-7.7-1.142-11.541c-.523-3.98-.723-7.994-.891-12q-1.131-26.991-.309-54.017a45.97,45.97,0,0,0-.547-11.209c-1.051-4.82-3.656-9.127-5.83-13.555-4.314-8.79-6.354-17.328-5.687-27.1C546.449,460.837,550.655,453.491,546.523,460.97Z" transform="translate(-198.327 -183.587)"/>
    <path id="Path_262" data-name="Path 262" class="cls-5" d="M627.638,460.471c1.769,1.818,7.779,2.417,10.029,3.588a35.143,35.143,0,0,0,6.592,2.283,85.59,85.59,0,0,1,23.159,10.629,14.055,14.055,0,0,1,3.873,3.345,15.334,15.334,0,0,1,2.142,6.05c1.1,5.457,2.209,10.98,1.961,16.542-.263,5.9-2.041,11.621-3.805,17.261L665,541.242c-4.92,15.73-9.872,31.616-11.256,48.039a113,113,0,0,0,1.014,27.284,3.235,3.235,0,0,1-.333,2.643,2.6,2.6,0,0,1-1.614.743c-3.182.5-6.26-1.125-9.143-2.56a101.247,101.247,0,0,0-27.911-9.133,64.885,64.885,0,0,0,8.669-17.87,108.142,108.142,0,0,0,2.619-12.29l3.066-17.735a174.283,174.283,0,0,0,2.631-19.612,24.555,24.555,0,0,0-.427-7.388,35.833,35.833,0,0,0-2.8-6.663c-5.054-10.512-7.425-22.508-5.436-34,.87-5.03,2.561-10.066,1.856-15.122-.678-4.861.027-8.638-1.22-13.448C619.592,444.378,624.311,457.051,627.638,460.471Z" transform="translate(-231.164 -182.356)"/>
    <path id="Path_263" data-name="Path 263" class="cls-5" d="M500.136,519.118c-2.3,4.781-6.156,8.854-7.467,14a30.579,30.579,0,0,0-.651,7.315c-.031,3.7-.051,7.477,1.085,11,.732,2.268,1.922,4.359,2.78,6.582a23.869,23.869,0,0,1,1.563,9.752c-.231,4.605-1.8,9.075-1.918,13.685-.192,7.249,3.16,14.063,6.432,20.534A15.1,15.1,0,0,1,523.9,594.8a4.5,4.5,0,0,0,.989-3.28q.363-12.614.7-25.229c.354-13.007.691-26.187-2.3-38.85-1.351-5.717-3.453-11.413-7.306-15.847-2.029-2.335-8.917-8.485-12.248-5.87-1.5,1.176-1.148,4.378-1.385,6A25.454,25.454,0,0,1,500.136,519.118Z" transform="translate(-197.936 -196.257)"/>
    <path id="Path_264" data-name="Path 264" class="cls-5" d="M683.512,500.944a35.184,35.184,0,0,1,1.177,10.583q.066,10.9-.289,21.807a40.654,40.654,0,0,1-1.417,11.04c-.744,2.34-1.892,4.534-2.661,6.865-2.3,6.988-1.045,14.567-.847,21.922a24.911,24.911,0,0,1-.6,7.091c-1.215,4.56-4.481,8.244-6.76,12.376-2.165,3.924-3.471,8.322-6.057,11.983s-7.061,6.561-11.4,5.437c-3.287-.851-5.623-3.761-7.238-6.748A33.1,33.1,0,0,1,644,581.832c1.622-8.927,6.866-16.846,8.757-25.72,2.6-12.186-1.35-24.761-1.232-37.219a17.989,17.989,0,0,1,.784-5.769c.992-2.846,3.122-5.118,5.09-7.4a93.442,93.442,0,0,0,6.841-8.979c1.409-2.1,3.323-7.506,5.821-7.955C675.633,487.785,682.129,496.635,683.512,500.944Z" transform="translate(-238.608 -191.86)"/>
    <path id="Path_265" data-name="Path 265" class="cls-4" d="M451.925,671.1a33.933,33.933,0,0,0-9.44-1,23.56,23.56,0,0,0-21.873,27.774,39.574,39.574,0,0,0,3.741,10.221c2.5,5.08,5.506,10.149,10.141,13.405a39.5,39.5,0,0,0,8.949,4.26l24.409,9.2c3.591,1.353,7.182,2.706,10.809,3.96a211.415,211.415,0,0,0,56.455,11.224c5.861.349,11.811.446,17.529-.888a5.706,5.706,0,0,0,3.59-1.939,6.148,6.148,0,0,0,.8-2.649l1.5-10.515a8.808,8.808,0,0,0-.128-4.433c-.688-1.767-2.413-2.879-4.057-3.823-16.047-9.217-34.785-14.3-48.292-26.952-3.18-2.978-5.841-7.7-9.7-9.721-4.381-2.294-9.541-3.6-14.069-5.717C472.388,678.88,462.654,673.57,451.925,671.1Z" transform="translate(-178.664 -240.557)"/>
    <path id="Path_266" data-name="Path 266" class="cls-7" d="M492.862,689.971c8.628,2.7,45.054,21.433,51.3,27.973-.837.3-29.232-15.611-30.084-15.867-7.745-2.324-15.533-4.664-22.888-8.066-1.48-.684-9.612-3.9-9.244-5.768C482.36,686.137,491.33,689.491,492.862,689.971Z" transform="translate(-195.232 -245.249)"/>
    <path id="Path_267" data-name="Path 267" class="cls-6" d="M631.032,778.788a2.027,2.027,0,0,0,1.368-.4,2.113,2.113,0,0,0,.427-1.574q-.02-7.163-.04-14.325c-4.119-1.963-8.727-2.592-13.25-3.2l-21.1-2.821c.485.065-3.3,9.089-2.719,10.294,1.023,2.123,8.839,4.005,11.044,5.008C614.427,775.257,622.4,779.089,631.032,778.788Z" transform="translate(-225.766 -263.752)"/>
    <path id="Path_268" data-name="Path 268" class="cls-6" d="M548.732,760.851c-3.984.635-8.432,1.2-11.012,4.3-3.272,3.933-1.879,9.8-.318,14.669a6.317,6.317,0,0,0,1.357,2.669c1.065,1.051,2.7,1.2,4.191,1.3,3.634.23,7.5.41,10.676-1.372a46.807,46.807,0,0,0,4.147-3.083,26.585,26.585,0,0,1,7.625-3.486,77.1,77.1,0,0,1,15.305-3.154,23.8,23.8,0,0,0,6.029-1.063,6.681,6.681,0,0,0,4.246-4.123c.735-2.6-.778-5.258-2.229-7.541-1.808-2.844-3.723-5.839-6.418-7.932-3.932-3.054-5.877-.71-9.838,1.245A83.472,83.472,0,0,1,548.732,760.851Z" transform="translate(-209.676 -262.166)"/>
    <path id="Path_269" data-name="Path 269" class="cls-4" d="M521.582,766.12l-25.3-7.478a33.487,33.487,0,0,0-9.415-1.824c-3.208,0-6.565,1.054-8.646,3.5-1.962,2.3-2.523,5.449-3.012,8.434l-1.046,6.386a32.072,32.072,0,0,0-.586,9.806c.479,3.253,2.139,6.5,5.026,8.079,3.5,1.91,7.792.977,11.7.178a127.368,127.368,0,0,1,23.975-2.571c3.028-.036,6.2,0,8.88-1.417a11.087,11.087,0,0,0,5.411-8.835C529.066,774.919,527.249,767.794,521.582,766.12Z" transform="translate(-192.939 -263.846)"/>
    <path id="Path_270" data-name="Path 270" class="cls-4" d="M653.676,758.763c3.28-.575,6.174-2.439,9.317-3.539,4.423-1.549,9.217-1.549,13.9-1.532,1.721.006,3.553.045,4.985,1,2.064,1.374,2.594,4.125,2.945,6.58l2.118,14.813c.4,2.786.794,5.647.173,8.392s-2.492,5.391-5.216,6.1c-3.308.86-6.551-1.253-9.675-2.642-7.807-3.47-16.883-2.583-25.023-5.176-1.511-.481-3.129-1.217-3.745-2.678a6.093,6.093,0,0,1-.291-2.56c.139-4.761-.865-11.263.569-15.813C645.024,757.614,650.016,758.763,653.676,758.763Z" transform="translate(-238.466 -263.006)"/>
    <path id="Path_271" data-name="Path 271" class="cls-4" d="M692.1,662.845a43.931,43.931,0,0,1,15.477-1.057c4.137.456,8.4,1.607,11.421,4.471,3.677,3.486,4.858,8.876,4.957,13.941a43.556,43.556,0,0,1-9.467,27.817,25.238,25.238,0,0,1-5.413,5.21,35.628,35.628,0,0,1-7.042,3.393l-54.664,21.561c-14.381,5.672-28.812,11.361-43.812,15.1a3.415,3.415,0,0,1-4.595-1.666A113.25,113.25,0,0,1,586.978,729.7a1.477,1.477,0,0,1,.653-2.328l38.664-22.215a39.1,39.1,0,0,0,7.87-5.422,19.537,19.537,0,0,0,4.04-5.625c.8-1.674.876-5.624,1.9-6.862,1-1.211,4.431-1.308,6.015-1.785a54.566,54.566,0,0,0,6.548-2.475c8.649-3.869,16.351-9.491,24.642-14.021a63.225,63.225,0,0,1,14.788-6.122Z" transform="translate(-223.347 -238.26)"/>
    <path id="Path_272" data-name="Path 272" class="cls-7" d="M678.06,684.454c-6.643,4.99-15.244,9.575-21.827,14.7-2.247,1.747-39.7,22.806-40.233,25.6,6.142,1.035,45.268-26.336,50.865-29.068s10.56-6.583,15.477-10.406c1.253-.974,6.564-3.9,2.967-4.992C683.283,679.674,679.556,683.457,678.06,684.454Z" transform="translate(-231.229 -243.28)"/>
    <path id="Path_273" data-name="Path 273" class="cls-4" d="M532.078,280.852,502.5,265.361,461.662,271.7l-8.45,37.321,21.034-.809,5.876-13.711v13.485l9.706-.374,5.633-21.828,3.521,23.237,34.5-.7Z" transform="translate(-121.686 -71.248)"/>
    <rect id="Rectangle_132" data-name="Rectangle 132" class="cls-1" width="63.641" height="76.808" transform="translate(340.149 286.161)"/>
    <path id="Path_274" data-name="Path 274" class="cls-6" d="M511.545,621.789a15.368,15.368,0,0,0,5.52,5.492,10.8,10.8,0,0,0,9.49-.254,16.7,16.7,0,0,0,6.848-6.866c3.214-5.676,3.88-12.467,3.479-18.978s-1.791-12.921-2.406-19.415c-.447-4.72-.484-9.469-.52-14.21a4.726,4.726,0,0,1,.6-2.874c.712-.972,2.015-1.24,3.17-1.583,6.487-1.927,10.793-8.008,13.88-14.03,2.061-4.021,3.854-8.417,3.456-12.918s-3.633-9.036-8.128-9.495c-3.706-.379-7.128,1.975-9.8,4.57a42.029,42.029,0,0,0-12.306,24.593c-.587,4.577-.419,9.278-1.664,13.721-2.658,9.487-10.974,15.3-15.118,23.839C503.476,602.787,506,613.466,511.545,621.789Z" transform="translate(-201.608 -202.038)"/>
    <path id="Path_275" data-name="Path 275" class="cls-6" d="M666.789,575.162a17.928,17.928,0,0,1-10.054,9.661,13.885,13.885,0,0,1-8.74.535,9.692,9.692,0,0,1-6.4-5.727,15.425,15.425,0,0,1-.721-4.3c-.416-6.4-.255-12.99,2.069-18.965.9-2.3,2.1-4.49,2.812-6.859a34.4,34.4,0,0,0,1.059-8.371l.764-17.455a11.361,11.361,0,0,0-.259-3.785c-.762-2.526-3.122-4.167-5.288-5.673-5.231-3.638-10.4-7.882-12.934-13.728a9.628,9.628,0,0,1-.894-5.686c.715-3.466,4.213-5.71,7.67-6.466a17.157,17.157,0,0,1,20.568,13.825c.342,1.97.337,3.982.538,5.971.425,4.22,1.764,8.287,2.6,12.445,2.064,10.241.995,20.827,3.036,31.066C664.319,560.208,670.755,565.794,666.789,575.162Z" transform="translate(-234.476 -191.654)"/>
    <path id="Path_276" data-name="Path 276" class="cls-4" d="M142.094,710.739l-1.463-.029a339.3,339.3,0,0,1,5.193-48.489c6.326-34.293,16.846-56.816,31.267-66.941l.84,1.2C144.244,620.129,142.111,709.835,142.094,710.739Z" transform="translate(-103.594 -220.474)"/>
    <path id="Path_277" data-name="Path 277" class="cls-4" d="M167.094,734.145l-1.463-.029c.031-1.62.946-39.8,15.978-50.358l.84,1.2C168.023,695.084,167.1,733.756,167.094,734.145Z" transform="translate(-110.307 -244.23)"/>
    <circle id="Ellipse_83" data-name="Ellipse 83" class="cls-5" cx="7.315" cy="7.315" r="7.315" transform="translate(75.345 361.506)"/>
    <circle id="Ellipse_84" data-name="Ellipse 84" class="cls-5" cx="7.315" cy="7.315" r="7.315" transform="translate(71.722 424.415)"/>
    <path id="Path_278" data-name="Path 278" class="cls-4" d="M159.406,597.527a32.493,32.493,0,0,1-2.208,16.635,29.612,29.612,0,0,1-4.978-31.8A32.5,32.5,0,0,1,159.406,597.527Z" transform="translate(-106.028 -217.006)"/>
    <path id="Path_279" data-name="Path 279" class="cls-4" d="M189.5,628.394a32.492,32.492,0,0,1-16.765.724,29.612,29.612,0,0,1,30.445-10.443A32.491,32.491,0,0,1,189.5,628.394Z" transform="translate(-112.215 -226.546)"/>
    <path id="Path_280" data-name="Path 280" class="cls-4" d="M191.713,705.681a22.774,22.774,0,0,1-11.751.507,20.755,20.755,0,0,1,21.339-7.32A22.775,22.775,0,0,1,191.713,705.681Z" transform="translate(-114.154 -248.121)"/>
  </g>
</svg>
