<svg xmlns="http://www.w3.org/2000/svg" xmlns:xlink="http://www.w3.org/1999/xlink" width="2569.992" height="761.383" viewBox="0 0 2569.992 761.383">
  <defs>
    <style>
      .cls-1 {
        fill: #262626;
      }

      .cls-2 {
        opacity: 0.75;
        fill: url(#linear-gradient);
      }

      .cls-3 {
        fill: #7ec396;
        opacity: 0.42;
      }
    </style>
    <linearGradient id="linear-gradient" x1="-1.672" y1="1.681" x2="-2.51" y2="1.133" gradientUnits="objectBoundingBox">
      <stop offset="0" stop-color="#7ec396"/>
      <stop offset="0.471" stop-color="#77bf8e"/>
      <stop offset="1" stop-color="#6cba7f"/>
    </linearGradient>
  </defs>
  <g id="Group_338" data-name="Group 338" transform="translate(133.992 -8366)">
    <path id="Path_236" data-name="Path 236" class="cls-1" d="M0,0H2439V761.383H0Z" transform="translate(-3 8366)"/>
    <path id="Path_433" data-name="Path 433" class="cls-2" d="M347.1,336.481c-.5-127.373-104.152-230.222-231.521-229.725S-114.643,210.908-114.146,338.278-9.994,568.5,117.376,568,347.594,463.85,347.1,336.481ZM-47.4,338.824A163.069,163.069,0,1,1,116.31,501.257,163.069,163.069,0,0,1-47.4,338.824Z" transform="translate(-19.845 8311.246)"/>
    <path id="Path_434" data-name="Path 434" class="cls-3" d="M331.072,0C148.227,0,0,168.563,0,376.493A423.458,423.458,0,0,0,17.111,496.265H122.542A294.992,294.992,0,0,1,98.112,377.8c0-147.023,104.821-266.184,234.107-266.184S566.291,230.775,566.291,377.8A295.587,295.587,0,0,1,541.9,496.265H645.032a423.454,423.454,0,0,0,17.112-119.773C662.144,168.563,513.916,0,331.072,0Z" transform="translate(1734.164 8630.645)"/>
  </g>
</svg>
