<svg xmlns="http://www.w3.org/2000/svg" viewBox="0 0 373.79 368.77">
    <defs>
        <style>.cls-1{fill:#fff;}</style>
    </defs>

    <path class="cls-1"
          d="M373.79,38.2V330.62a38.19,38.19,0,0,1-38.27,38.15H57.44l41-47.58H289.48V273.51h-150l56-65.1h93.94V160.68H236.59L364,12.69A37.93,37.93,0,0,1,373.79,38.2Z"/>
    <path class="cls-1"
          d="M84.09,47.79V95.53H226.27l-13.45,15.71-.07.1-42.23,49.34H84.42v47.73h44.75L6.13,351.34A38,38,0,0,1,0,330.62V38.2A38.21,38.21,0,0,1,38.27,0H308.05L267.13,47.79Z"/>

</svg>