<svg xmlns="http://www.w3.org/2000/svg" xmlns:xlink="http://www.w3.org/1999/xlink" viewBox="0 0 779.45 409.84"><defs><style>.cls-1{fill:url(#linear-gradient);}.cls-2{opacity:0.7;fill:url(#linear-gradient-2);}.cls-3,.cls-5{opacity:0.75;}.cls-3{fill:url(#linear-gradient-3);}.cls-4{opacity:0.24;fill:url(#linear-gradient-4);}.cls-5{fill:url(#linear-gradient-5);}</style><linearGradient id="linear-gradient" x1="114.14" y1="274.87" x2="726.14" y2="274.87" gradientUnits="userSpaceOnUse"><stop offset="0" stop-color="#74c592"/><stop offset="0.57" stop-color="#62bc7f"/><stop offset="1" stop-color="#59b875"/></linearGradient><linearGradient id="linear-gradient-2" x1="135.19" y1="59.45" x2="365.23" y2="209.87" gradientTransform="translate(282.42 -129.49) rotate(71.79)" gradientUnits="userSpaceOnUse"><stop offset="0" stop-color="#88cca8"/><stop offset="0.49" stop-color="#81c9a0"/><stop offset="1" stop-color="#74c592"/></linearGradient><linearGradient id="linear-gradient-3" x1="430.52" y1="137.24" x2="565.65" y2="225.6" gradientTransform="translate(-94.52 820.98) rotate(-90.22)" xlink:href="#linear-gradient-2"/><linearGradient id="linear-gradient-4" x1="-38.05" y1="-326.09" x2="66.44" y2="-257.77" gradientTransform="translate(457.61 -18.57) rotate(116.79)" xlink:href="#linear-gradient-2"/><linearGradient id="linear-gradient-5" x1="571.9" y1="326.47" x2="723.91" y2="425.86" gradientUnits="userSpaceOnUse"><stop offset="0" stop-color="#74c592"/><stop offset="0.4" stop-color="#6dc18a"/><stop offset="1" stop-color="#59b875"/></linearGradient></defs><g id="Layer_2" data-name="Layer 2"><g id="Layer_2-2" data-name="Layer 2"><rect class="cls-1" x="114.14" y="140.37" width="612" height="269"/><path class="cls-2" d="M366.65,94.51A137.41,137.41,0,1,0,279.06,268,137.41,137.41,0,0,0,366.65,94.51ZM143.52,168.42a97.16,97.16,0,1,1,122.66,61.93A97.16,97.16,0,0,1,143.52,168.42Z"/><path class="cls-3" d="M0,329.05a80.72,80.72,0,1,0,80.4-81A80.71,80.71,0,0,0,0,329.05Zm138.07-.82a57.08,57.08,0,1,1-57.3-56.85A57.08,57.08,0,0,1,138.07,328.23Z"/><path class="cls-4" d="M772.74,150.79a62.41,62.41,0,1,0-83.84,27.58A62.4,62.4,0,0,0,772.74,150.79Zm-95.4-47.92a44.13,44.13,0,1,1,19.5,59.28A44.14,44.14,0,0,1,677.34,102.87Z"/><path class="cls-5" d="M636.39,288.19a92.35,92.35,0,0,0-87.52,121.65h29.39a65.25,65.25,0,1,1,116.9,0h28.75a92.35,92.35,0,0,0-87.52-121.65Z"/></g></g></svg>