<svg xmlns="http://www.w3.org/2000/svg" xmlns:xlink="http://www.w3.org/1999/xlink" width="1354" height="740.198" viewBox="0 0 1354 740.198">
  <defs>
    <clipPath id="clip-path">
      <ellipse id="Ellipse_30" data-name="Ellipse 30" cx="88" cy="84.5" rx="88" ry="84.5" transform="translate(-0.001 0)" fill="#6cba7f" stroke="#707070" stroke-width="1"/>
    </clipPath>
    <clipPath id="clip-path-3">
      <ellipse id="Ellipse_37" data-name="Ellipse 37" cx="87.5" cy="84" rx="87.5" ry="84" transform="translate(-0.001 0)" fill="#6cba7f" stroke="#707070" stroke-width="1"/>
    </clipPath>
    <clipPath id="clip-path-4">
      <ellipse id="Ellipse_38" data-name="Ellipse 38" cx="87.5" cy="84" rx="87.5" ry="84" transform="translate(0 0)" fill="#6cba7f" stroke="#707070" stroke-width="1"/>
    </clipPath>
    <clipPath id="clip-path-5">
      <ellipse id="Ellipse_39" data-name="Ellipse 39" cx="87" cy="84.5" rx="87" ry="84.5" transform="translate(-0.001 0)" fill="#6cba7f" stroke="#707070" stroke-width="1"/>
    </clipPath>
    <clipPath id="clip-path-6">
      <ellipse id="Ellipse_40" data-name="Ellipse 40" cx="87.5" cy="84.5" rx="87.5" ry="84.5" transform="translate(-0.001 0.001)" fill="#6cba7f" stroke="#707070" stroke-width="1"/>
    </clipPath>
  </defs>
  <g id="Group_222" data-name="Group 222" transform="translate(752.008 -4818)">
    <g id="Group_205" data-name="Group 205" transform="translate(-752.008 4818)">
      <text id="Ekroop_Kaur_UI_UX_Designer_" data-name="Ekroop Kaur 
 UI/UX Designer 
" transform="translate(454 647)" fill="#707070" font-size="21" font-family="Helvetica"><tspan x="33.635" y="16">Ekroop Kaur </tspan><tspan x="16.142" y="41" xml:space="preserve"> UI/UX Designer </tspan></text>
      <g id="Group_194" data-name="Group 194" transform="translate(502.56 711.267)">
        <g id="behance-network" transform="translate(43.396)">
          <g id="Group_189" data-name="Group 189">
            <path id="Path_213" data-name="Path 213" d="M28.015,35.475c0-1.357-.923-1.357-.923-1.357h-3.8V37.03h3.563C27.472,37.029,28.015,36.832,28.015,35.475Z" transform="translate(-16.439 -24.078)" fill="#fcb204"/>
            <path id="Path_214" data-name="Path 214" d="M27.092,50.846h-3.8v3.487h3.623c.545-.016,1.551-.186,1.551-1.7C28.468,50.828,27.092,50.846,27.092,50.846Z" transform="translate(-16.439 -35.883)" fill="#fcb204"/>
            <path id="Path_215" data-name="Path 215" d="M63.736,44.011a2.334,2.334,0,0,0-2.3,2.011h4.286A1.942,1.942,0,0,0,63.736,44.011Z" transform="translate(-43.358 -31.059)" fill="#fcb204"/>
            <path id="Path_216" data-name="Path 216" d="M14.383,0A14.383,14.383,0,1,0,28.766,14.383,14.383,14.383,0,0,0,14.383,0Zm3.136,8.49H22.9V10.1H17.519ZM14.8,16.917c0,3.983-4.145,3.852-4.145,3.852H3.863V7.721h6.79c2.064,0,3.692,1.139,3.692,3.474a2.265,2.265,0,0,1-1.991,2.483C14.979,13.678,14.8,16.917,14.8,16.917Zm5.6,2.058c2.169,0,2.092-1.4,2.092-1.4h2.3c0,3.725-4.465,3.47-4.465,3.47a4.629,4.629,0,0,1-5.013-4.988s0-5.013,5.013-5.013c5.282,0,4.542,5.663,4.542,5.663H18.106A2.122,2.122,0,0,0,20.4,18.975Z" fill="#fcb204"/>
          </g>
        </g>
        <path id="linkedin" d="M13.808,0A13.808,13.808,0,1,0,27.616,13.808,13.809,13.809,0,0,0,13.808,0ZM9.8,20.874H6.433V10.756H9.8ZM8.114,9.375H8.092a1.753,1.753,0,1,1,.044-3.5,1.753,1.753,0,1,1-.022,3.5Zm13.807,11.5H18.559V15.461c0-1.36-.487-2.288-1.7-2.288A1.841,1.841,0,0,0,15.13,14.4a2.3,2.3,0,0,0-.111.821v5.65H11.656s.044-9.168,0-10.117h3.363v1.432a3.338,3.338,0,0,1,3.031-1.67c2.212,0,3.871,1.446,3.871,4.553Zm0,0" transform="translate(0 1.315)" fill="#fcb204"/>
      </g>
      <g id="Mask_Group_1" data-name="Mask Group 1" transform="translate(135.001 0)" clip-path="url(#clip-path)">
        <g id="User_Male_Side" data-name="User Male Side" transform="translate(3.722 0.22)">
          <g id="Glyph">
            <path id="Path_189" data-name="Path 189" d="M119.89,120.93a7.9,7.9,0,0,0,7.89-7.89,2.63,2.63,0,0,0-5.26,0,2.63,2.63,0,1,1-5.26,0V102.52a5.26,5.26,0,1,1,10.52,0,2.63,2.63,0,1,0,5.26,0,10.52,10.52,0,1,0-21.04,0v10.52A7.9,7.9,0,0,0,119.89,120.93Z" transform="translate(-38.358 -31.508)" fill="#6cba7f"/>
            <path id="Path_190" data-name="Path 190" d="M24.65,24.65a84.162,84.162,0,1,1,0,119.023,84.162,84.162,0,0,1,0-119.023Zm17.5,123.711a2.622,2.622,0,0,0,1.05,3.267,79.094,79.094,0,0,0,80.361.926,2.634,2.634,0,0,0,1.023-3.452q-.723-1.468-1.525-2.9A66.382,66.382,0,0,0,99.93,122.116l.012-3.764a2.633,2.633,0,0,1,2.63-2.63h11.651a7.871,7.871,0,0,0,7.664-6.016l3.978-16.267,6.871-3.123a5.26,5.26,0,0,0,2.528-7.141l-9.026-18.053A44.764,44.764,0,0,0,81.531,21.04H79.789a45.651,45.651,0,0,0-45.6,45.6,51.658,51.658,0,0,0,8.42,27.5,66.811,66.811,0,0,0,20.51,20.421v7.378A64.275,64.275,0,0,0,42.152,148.36Z" transform="translate(0 0)" fill="#6cba7f"/>
          </g>
        </g>
      </g>
      <g id="Mask_Group_2" data-name="Mask Group 2" transform="translate(451.001 469)" clip-path="url(#clip-path)">
        <g id="User_Female_Side" data-name="User Female Side" transform="translate(3.986 0.685)">
          <g id="Glyph-2" data-name="Glyph">
            <path id="Path_191" data-name="Path 191" d="M24.65,24.65a84.162,84.162,0,1,1,0,119.023,84.162,84.162,0,0,1,0-119.023ZM26.3,94.682a21.04,21.04,0,0,0,21.04,21.04h15.78v8.841a64.155,64.155,0,0,0-19.3,22.846,4.205,4.205,0,0,0,1.659,5.564,79.2,79.2,0,0,0,75.538.994,4.161,4.161,0,0,0,1.7-5.733l-.021-.037a66.351,66.351,0,0,0-22.759-23.445v-3.77a2.63,2.63,0,0,1,2.63-2.63h11.651a7.871,7.871,0,0,0,7.664-6.016l3.978-16.267,6.728-3.057a5.462,5.462,0,0,0,2.89-3,5.218,5.218,0,0,0-.219-4.2l-8.712-17.424h7.579V64.958c0-29.8-23.961-54.355-53.763-54.438A53.975,53.975,0,0,0,26.3,64.436Z" transform="translate(0 0)" fill="#6cba7f" stroke="#707070" stroke-width="0.5"/>
            <path id="Path_192" data-name="Path 192" d="M72,82.719V93.15a2.63,2.63,0,0,0,2.63,2.63h0a2.63,2.63,0,0,0,2.63-2.63V82.63a2.63,2.63,0,0,0-2.8-2.624A2.689,2.689,0,0,0,72,82.719Z" transform="translate(43.722 -27.398)" fill="#6cba7f" stroke="#707070" stroke-width="0.5"/>
            <path id="Path_193" data-name="Path 193" d="M88,66.719V87.67a2.63,2.63,0,0,0,2.63,2.63h0a2.63,2.63,0,0,0,2.63-2.63V66.63a2.63,2.63,0,0,0-2.8-2.624A2.689,2.689,0,0,0,88,66.719Z" transform="translate(17.202 -21.919)" fill="#6cba7f" stroke="#707070" stroke-width="0.5"/>
            <path id="Path_194" data-name="Path 194" d="M104,82.719V93.15a2.63,2.63,0,0,0,2.63,2.63h0a2.63,2.63,0,0,0,2.63-2.63V82.63a2.63,2.63,0,0,0-2.8-2.624A2.689,2.689,0,0,0,104,82.719Z" transform="translate(-9.318 -27.398)" fill="#6cba7f" stroke="#707070" stroke-width="0.5"/>
          </g>
        </g>
      </g>
      <g id="Mask_Group_3" data-name="Mask Group 3" transform="translate(32.001 291)" clip-path="url(#clip-path-3)">
        <g id="User_Male_Side-2" data-name="User Male Side" transform="translate(2.835 -0.159)">
          <g id="Glyph-3" data-name="Glyph">
            <path id="Path_195" data-name="Path 195" d="M119.89,120.93a7.9,7.9,0,0,0,7.89-7.89,2.63,2.63,0,0,0-5.26,0,2.63,2.63,0,1,1-5.26,0V102.52a5.26,5.26,0,1,1,10.52,0,2.63,2.63,0,1,0,5.26,0,10.52,10.52,0,1,0-21.04,0v10.52A7.9,7.9,0,0,0,119.89,120.93Z" transform="translate(-38.358 -31.508)" fill="#6cba7f" stroke="#707070" stroke-width="0.5"/>
            <path id="Path_196" data-name="Path 196" d="M24.65,24.65a84.162,84.162,0,1,1,0,119.023,84.162,84.162,0,0,1,0-119.023Zm17.5,123.711a2.622,2.622,0,0,0,1.05,3.267,79.094,79.094,0,0,0,80.361.926,2.634,2.634,0,0,0,1.023-3.452q-.723-1.468-1.525-2.9A66.382,66.382,0,0,0,99.93,122.116l.012-3.764a2.633,2.633,0,0,1,2.63-2.63h11.651a7.871,7.871,0,0,0,7.664-6.016l3.978-16.267,6.871-3.123a5.26,5.26,0,0,0,2.528-7.141l-9.026-18.053A44.764,44.764,0,0,0,81.531,21.04H79.789a45.651,45.651,0,0,0-45.6,45.6,51.658,51.658,0,0,0,8.42,27.5,66.811,66.811,0,0,0,20.51,20.421v7.378A64.275,64.275,0,0,0,42.152,148.36Z" transform="translate(0 0)" fill="#6cba7f" stroke="#707070" stroke-width="0.5"/>
          </g>
        </g>
      </g>
      <g id="Mask_Group_4" data-name="Mask Group 4" transform="translate(797 448)" clip-path="url(#clip-path-4)">
        <g id="User_Female_Side-2" data-name="User Female Side" transform="translate(3.182 -0.013)">
          <g id="Glyph-4" data-name="Glyph">
            <path id="Path_197" data-name="Path 197" d="M24.65,24.65a84.162,84.162,0,1,1,0,119.023,84.162,84.162,0,0,1,0-119.023ZM26.3,94.682a21.04,21.04,0,0,0,21.04,21.04h15.78v8.841a64.155,64.155,0,0,0-19.3,22.846,4.205,4.205,0,0,0,1.659,5.564,79.2,79.2,0,0,0,75.538.994,4.161,4.161,0,0,0,1.7-5.733l-.021-.037a66.351,66.351,0,0,0-22.759-23.445v-3.77a2.63,2.63,0,0,1,2.63-2.63h11.651a7.871,7.871,0,0,0,7.664-6.016l3.978-16.267,6.728-3.057a5.462,5.462,0,0,0,2.89-3,5.218,5.218,0,0,0-.219-4.2l-8.712-17.424h7.579V64.958c0-29.8-23.961-54.355-53.763-54.438A53.975,53.975,0,0,0,26.3,64.436Z" transform="translate(0 0)" fill="#6cba7f"/>
            <path id="Path_198" data-name="Path 198" d="M72,82.719V93.15a2.63,2.63,0,0,0,2.63,2.63h0a2.63,2.63,0,0,0,2.63-2.63V82.63a2.63,2.63,0,0,0-2.8-2.624A2.689,2.689,0,0,0,72,82.719Z" transform="translate(43.722 -27.398)" fill="#6cba7f"/>
            <path id="Path_199" data-name="Path 199" d="M88,66.719V87.67a2.63,2.63,0,0,0,2.63,2.63h0a2.63,2.63,0,0,0,2.63-2.63V66.63a2.63,2.63,0,0,0-2.8-2.624A2.689,2.689,0,0,0,88,66.719Z" transform="translate(17.202 -21.919)" fill="#6cba7f"/>
            <path id="Path_200" data-name="Path 200" d="M104,82.719V93.15a2.63,2.63,0,0,0,2.63,2.63h0a2.63,2.63,0,0,0,2.63-2.63V82.63a2.63,2.63,0,0,0-2.8-2.624A2.689,2.689,0,0,0,104,82.719Z" transform="translate(-9.318 -27.398)" fill="#6cba7f"/>
          </g>
        </g>
      </g>
      <g id="Mask_Group_5" data-name="Mask Group 5" transform="translate(1168.001 340)" clip-path="url(#clip-path-5)">
        <g id="User_Female_Side-3" data-name="User Female Side" transform="translate(3.019 0.154)">
          <g id="Glyph-5" data-name="Glyph">
            <path id="Path_201" data-name="Path 201" d="M24.65,24.65a84.162,84.162,0,1,1,0,119.023,84.162,84.162,0,0,1,0-119.023ZM26.3,94.682a21.04,21.04,0,0,0,21.04,21.04h15.78v8.841a64.155,64.155,0,0,0-19.3,22.846,4.205,4.205,0,0,0,1.659,5.564,79.2,79.2,0,0,0,75.538.994,4.161,4.161,0,0,0,1.7-5.733l-.021-.037a66.351,66.351,0,0,0-22.759-23.445v-3.77a2.63,2.63,0,0,1,2.63-2.63h11.651a7.871,7.871,0,0,0,7.664-6.016l3.978-16.267,6.728-3.057a5.462,5.462,0,0,0,2.89-3,5.218,5.218,0,0,0-.219-4.2l-8.712-17.424h7.579V64.958c0-29.8-23.961-54.355-53.763-54.438A53.975,53.975,0,0,0,26.3,64.436Z" transform="translate(0 0)" fill="#6cba7f"/>
            <path id="Path_202" data-name="Path 202" d="M72,82.719V93.15a2.63,2.63,0,0,0,2.63,2.63h0a2.63,2.63,0,0,0,2.63-2.63V82.63a2.63,2.63,0,0,0-2.8-2.624A2.689,2.689,0,0,0,72,82.719Z" transform="translate(43.722 -27.398)" fill="#6cba7f"/>
            <path id="Path_203" data-name="Path 203" d="M88,66.719V87.67a2.63,2.63,0,0,0,2.63,2.63h0a2.63,2.63,0,0,0,2.63-2.63V66.63a2.63,2.63,0,0,0-2.8-2.624A2.689,2.689,0,0,0,88,66.719Z" transform="translate(17.202 -21.919)" fill="#6cba7f"/>
            <path id="Path_204" data-name="Path 204" d="M104,82.719V93.15a2.63,2.63,0,0,0,2.63,2.63h0a2.63,2.63,0,0,0,2.63-2.63V82.63a2.63,2.63,0,0,0-2.8-2.624A2.689,2.689,0,0,0,104,82.719Z" transform="translate(-9.318 -27.398)" fill="#6cba7f"/>
          </g>
        </g>
      </g>
      <g id="Mask_Group_6" data-name="Mask Group 6" transform="translate(539.001 135)" clip-path="url(#clip-path-6)">
        <g id="User_Female_Side-4" data-name="User Female Side" transform="translate(3.435 0.01)">
          <g id="Glyph-6" data-name="Glyph">
            <path id="Path_205" data-name="Path 205" d="M24.65,24.65a84.162,84.162,0,1,1,0,119.023,84.162,84.162,0,0,1,0-119.023ZM26.3,94.682a21.04,21.04,0,0,0,21.04,21.04h15.78v8.841a64.155,64.155,0,0,0-19.3,22.846,4.205,4.205,0,0,0,1.659,5.564,79.2,79.2,0,0,0,75.538.994,4.161,4.161,0,0,0,1.7-5.733l-.021-.037a66.351,66.351,0,0,0-22.759-23.445v-3.77a2.63,2.63,0,0,1,2.63-2.63h11.651a7.871,7.871,0,0,0,7.664-6.016l3.978-16.267,6.728-3.057a5.462,5.462,0,0,0,2.89-3,5.218,5.218,0,0,0-.219-4.2l-8.712-17.424h7.579V64.958c0-29.8-23.961-54.355-53.763-54.438A53.975,53.975,0,0,0,26.3,64.436Z" transform="translate(0 0)" fill="#6cba7f"/>
            <path id="Path_206" data-name="Path 206" d="M72,82.719V93.15a2.63,2.63,0,0,0,2.63,2.63h0a2.63,2.63,0,0,0,2.63-2.63V82.63a2.63,2.63,0,0,0-2.8-2.624A2.689,2.689,0,0,0,72,82.719Z" transform="translate(43.722 -27.398)" fill="#6cba7f"/>
            <path id="Path_207" data-name="Path 207" d="M88,66.719V87.67a2.63,2.63,0,0,0,2.63,2.63h0a2.63,2.63,0,0,0,2.63-2.63V66.63a2.63,2.63,0,0,0-2.8-2.624A2.689,2.689,0,0,0,88,66.719Z" transform="translate(17.202 -21.919)" fill="#6cba7f"/>
            <path id="Path_208" data-name="Path 208" d="M104,82.719V93.15a2.63,2.63,0,0,0,2.63,2.63h0a2.63,2.63,0,0,0,2.63-2.63V82.63a2.63,2.63,0,0,0-2.8-2.624A2.689,2.689,0,0,0,104,82.719Z" transform="translate(-9.318 -27.398)" fill="#6cba7f"/>
          </g>
        </g>
      </g>
      <g id="Mask_Group_7" data-name="Mask Group 7" transform="translate(993.001 51)" clip-path="url(#clip-path-3)">
        <g id="User_Female_Side-5" data-name="User Female Side" transform="translate(3.12 -0.152)">
          <g id="Glyph-7" data-name="Glyph">
            <path id="Path_209" data-name="Path 209" d="M24.65,24.65a84.162,84.162,0,1,1,0,119.023,84.162,84.162,0,0,1,0-119.023ZM26.3,94.682a21.04,21.04,0,0,0,21.04,21.04h15.78v8.841a64.155,64.155,0,0,0-19.3,22.846,4.205,4.205,0,0,0,1.659,5.564,79.2,79.2,0,0,0,75.538.994,4.161,4.161,0,0,0,1.7-5.733l-.021-.037a66.351,66.351,0,0,0-22.759-23.445v-3.77a2.63,2.63,0,0,1,2.63-2.63h11.651a7.871,7.871,0,0,0,7.664-6.016l3.978-16.267,6.728-3.057a5.462,5.462,0,0,0,2.89-3,5.218,5.218,0,0,0-.219-4.2l-8.712-17.424h7.579V64.958c0-29.8-23.961-54.355-53.763-54.438A53.975,53.975,0,0,0,26.3,64.436Z" transform="translate(0 0)" fill="#6cba7f"/>
            <path id="Path_210" data-name="Path 210" d="M72,82.719V93.15a2.63,2.63,0,0,0,2.63,2.63h0a2.63,2.63,0,0,0,2.63-2.63V82.63a2.63,2.63,0,0,0-2.8-2.624A2.689,2.689,0,0,0,72,82.719Z" transform="translate(43.722 -27.398)" fill="#6cba7f"/>
            <path id="Path_211" data-name="Path 211" d="M88,66.719V87.67a2.63,2.63,0,0,0,2.63,2.63h0a2.63,2.63,0,0,0,2.63-2.63V66.63a2.63,2.63,0,0,0-2.8-2.624A2.689,2.689,0,0,0,88,66.719Z" transform="translate(17.202 -21.919)" fill="#6cba7f"/>
            <path id="Path_212" data-name="Path 212" d="M104,82.719V93.15a2.63,2.63,0,0,0,2.63,2.63h0a2.63,2.63,0,0,0,2.63-2.63V82.63a2.63,2.63,0,0,0-2.8-2.624A2.689,2.689,0,0,0,104,82.719Z" transform="translate(-9.318 -27.398)" fill="#6cba7f"/>
          </g>
        </g>
      </g>
      <text id="Ravijeet_Singh_Ahluwalia_Project_Manager_and_Developer_" data-name="Ravijeet Singh Ahluwalia  
Project Manager and Developer " transform="translate(78 183)" fill="#707070" font-size="21" font-family="Helvetica"><tspan x="25.508" y="16" xml:space="preserve">Ravijeet Singh Ahluwalia  </tspan><tspan x="43.026" y="41">Project Manager and </tspan><tspan x="92.64" y="66">Developer </tspan></text>
      <text id="Randeep_Kaur_Full_Stack_Developer_" data-name="Randeep Kaur 
 Full Stack Developer 
" transform="translate(503 313)" fill="#707070" font-size="21" font-family="Helvetica"><tspan x="56.283" y="16">Randeep Kaur </tspan><tspan x="24.209" y="41" xml:space="preserve"> Full Stack Developer </tspan><tspan font-family="Roboto-Regular, Roboto"><tspan x="124" y="66"></tspan></tspan></text>
      <text id="Sweera_Chahal_Content-Strategist_Front-end_Developer_" data-name="Sweera Chahal 
 Content-Strategist/Front-end Developer " transform="translate(957 230)" fill="#707070" font-size="21" font-family="Helvetica"><tspan x="67.207" y="16">Sweera Chahal </tspan><tspan x="3.018" y="41" xml:space="preserve"> Content-Strategist/Front-end </tspan><tspan x="91.14" y="66">Developer </tspan></text>
      <text id="Bhinderjit_Singh_Kaler_Lead_Designer_" data-name="Bhinderjit Singh Kaler  Lead Designer 
" transform="translate(0 471)" fill="#707070" font-size="21" font-family="Helvetica"><tspan x="18.525" y="16" xml:space="preserve">Bhinderjit Singh Kaler  </tspan><tspan x="51.204" y="41">Lead Designer </tspan></text>
      <text id="Varpreet_Kaur_UI_UX_Designer_and_QA_" data-name="Varpreet Kaur 
 UI/UX Designer and QA " transform="translate(796 629)" fill="#707070" font-size="21" font-family="Helvetica"><tspan x="33.906" y="16">Varpreet Kaur </tspan><tspan x="2.206" y="41" xml:space="preserve"> UI/UX Designer and </tspan><tspan x="83.329" y="66">QA </tspan></text>
      <text id="Avneet_Kaur_Gill_UI_Designer_" data-name="Avneet Kaur Gill 
 UI Designer " transform="translate(1192 521)" fill="#707070" font-size="21" font-family="Helvetica"><tspan x="5.316" y="16">Avneet Kaur Gill </tspan><tspan x="22.645" y="41" xml:space="preserve"> UI Designer </tspan></text>
      <g id="Group_190" data-name="Group 190" transform="translate(188.693 263.172)">
        <path id="logo" d="M14.065.5A13.943,13.943,0,0,0,0,14.321,13.844,13.844,0,0,0,9.617,27.435c.7.13.961-.3.961-.665,0-.328-.012-1.2-.018-2.35-3.912.833-4.738-1.854-4.738-1.854a3.684,3.684,0,0,0-1.565-2.022c-1.274-.857.1-.839.1-.839a2.942,2.942,0,0,1,2.154,1.424,3.029,3.029,0,0,0,4.1,1.15A2.926,2.926,0,0,1,11.5,20.43C8.375,20.084,5.092,18.9,5.092,13.6A5.281,5.281,0,0,1,6.539,9.892a4.836,4.836,0,0,1,.123-3.658s1.178-.37,3.868,1.417a13.485,13.485,0,0,1,7.033,0c2.672-1.787,3.85-1.417,3.85-1.417a4.969,4.969,0,0,1,.141,3.658A5.3,5.3,0,0,1,23,13.6c0,5.31-3.288,6.478-6.417,6.818a3.28,3.28,0,0,1,.949,2.557c0,1.85-.018,3.336-.018,3.785,0,.362.246.795.967.656a13.8,13.8,0,0,0,9.653-13.1A13.945,13.945,0,0,0,14.065.5Z" transform="translate(39.851 -0.5)" fill="#fcb204"/>
        <path id="linkedin-2" data-name="linkedin" d="M13.808,0A13.808,13.808,0,1,0,27.616,13.808,13.809,13.809,0,0,0,13.808,0ZM9.8,20.874H6.433V10.756H9.8ZM8.114,9.375H8.092a1.753,1.753,0,1,1,.044-3.5,1.753,1.753,0,1,1-.022,3.5Zm13.807,11.5H18.559V15.461c0-1.36-.487-2.288-1.7-2.288A1.841,1.841,0,0,0,15.13,14.4a2.3,2.3,0,0,0-.111.821v5.65H11.656s.044-9.168,0-10.117h3.363v1.432a3.338,3.338,0,0,1,3.031-1.67c2.212,0,3.871,1.446,3.871,4.553Zm0,0" fill="#fcb204"/>
      </g>
      <g id="Group_191" data-name="Group 191" transform="translate(1046.27 311.485)">
        <path id="logo-2" data-name="logo" d="M14.065.5A13.943,13.943,0,0,0,0,14.321,13.844,13.844,0,0,0,9.617,27.435c.7.13.961-.3.961-.665,0-.328-.012-1.2-.018-2.35-3.912.833-4.738-1.854-4.738-1.854a3.684,3.684,0,0,0-1.565-2.022c-1.274-.857.1-.839.1-.839a2.942,2.942,0,0,1,2.154,1.424,3.029,3.029,0,0,0,4.1,1.15A2.926,2.926,0,0,1,11.5,20.43C8.375,20.084,5.092,18.9,5.092,13.6A5.281,5.281,0,0,1,6.539,9.892a4.836,4.836,0,0,1,.123-3.658s1.178-.37,3.868,1.417a13.485,13.485,0,0,1,7.033,0c2.672-1.787,3.85-1.417,3.85-1.417a4.969,4.969,0,0,1,.141,3.658A5.3,5.3,0,0,1,23,13.6c0,5.31-3.288,6.478-6.417,6.818a3.28,3.28,0,0,1,.949,2.557c0,1.85-.018,3.336-.018,3.785,0,.362.246.795.967.656a13.8,13.8,0,0,0,9.653-13.1A13.945,13.945,0,0,0,14.065.5Z" transform="translate(39.851 -0.5)" fill="#fcb204"/>
        <path id="linkedin-3" data-name="linkedin" d="M13.808,0A13.808,13.808,0,1,0,27.616,13.808,13.809,13.809,0,0,0,13.808,0ZM9.8,20.874H6.433V10.756H9.8ZM8.114,9.375H8.092a1.753,1.753,0,1,1,.044-3.5,1.753,1.753,0,1,1-.022,3.5Zm13.807,11.5H18.559V15.461c0-1.36-.487-2.288-1.7-2.288A1.841,1.841,0,0,0,15.13,14.4a2.3,2.3,0,0,0-.111.821v5.65H11.656s.044-9.168,0-10.117h3.363v1.432a3.338,3.338,0,0,1,3.031-1.67c2.212,0,3.871,1.446,3.871,4.553Zm0,0" transform="translate(0)" fill="#fcb204"/>
      </g>
      <g id="Group_192" data-name="Group 192" transform="translate(592.722 374.675)">
        <path id="logo-3" data-name="logo" d="M14.065.5A13.943,13.943,0,0,0,0,14.321,13.844,13.844,0,0,0,9.617,27.435c.7.13.961-.3.961-.665,0-.328-.012-1.2-.018-2.35-3.912.833-4.738-1.854-4.738-1.854a3.684,3.684,0,0,0-1.565-2.022c-1.274-.857.1-.839.1-.839a2.942,2.942,0,0,1,2.154,1.424,3.029,3.029,0,0,0,4.1,1.15A2.926,2.926,0,0,1,11.5,20.43C8.375,20.084,5.092,18.9,5.092,13.6A5.281,5.281,0,0,1,6.539,9.892a4.836,4.836,0,0,1,.123-3.658s1.178-.37,3.868,1.417a13.485,13.485,0,0,1,7.033,0c2.672-1.787,3.85-1.417,3.85-1.417a4.969,4.969,0,0,1,.141,3.658A5.3,5.3,0,0,1,23,13.6c0,5.31-3.288,6.478-6.417,6.818a3.28,3.28,0,0,1,.949,2.557c0,1.85-.018,3.336-.018,3.785,0,.362.246.795.967.656a13.8,13.8,0,0,0,9.653-13.1A13.945,13.945,0,0,0,14.065.5Z" transform="translate(39.851 -0.5)" fill="#fcb204"/>
        <path id="linkedin-4" data-name="linkedin" d="M13.808,0A13.808,13.808,0,1,0,27.616,13.808,13.809,13.809,0,0,0,13.808,0ZM9.8,20.874H6.433V10.756H9.8ZM8.114,9.375H8.092a1.753,1.753,0,1,1,.044-3.5,1.753,1.753,0,1,1-.022,3.5Zm13.807,11.5H18.559V15.461c0-1.36-.487-2.288-1.7-2.288A1.841,1.841,0,0,0,15.13,14.4a2.3,2.3,0,0,0-.111.821v5.65H11.656s.044-9.168,0-10.117h3.363v1.432a3.338,3.338,0,0,1,3.031-1.67c2.212,0,3.871,1.446,3.871,4.553Zm0,0" transform="translate(0)" fill="#fcb204"/>
      </g>
      <g id="Group_193" data-name="Group 193" transform="translate(83.834 540.683)">
        <g id="behance-network-2" data-name="behance-network" transform="translate(43.396)">
          <g id="Group_189-2" data-name="Group 189">
            <path id="Path_213-2" data-name="Path 213" d="M28.015,35.475c0-1.357-.923-1.357-.923-1.357h-3.8V37.03h3.563C27.472,37.029,28.015,36.832,28.015,35.475Z" transform="translate(-16.439 -24.078)" fill="#fcb204"/>
            <path id="Path_214-2" data-name="Path 214" d="M27.092,50.846h-3.8v3.487h3.623c.545-.016,1.551-.186,1.551-1.7C28.468,50.828,27.092,50.846,27.092,50.846Z" transform="translate(-16.439 -35.883)" fill="#fcb204"/>
            <path id="Path_215-2" data-name="Path 215" d="M63.736,44.011a2.334,2.334,0,0,0-2.3,2.011h4.286A1.942,1.942,0,0,0,63.736,44.011Z" transform="translate(-43.358 -31.059)" fill="#fcb204"/>
            <path id="Path_216-2" data-name="Path 216" d="M14.383,0A14.383,14.383,0,1,0,28.766,14.383,14.383,14.383,0,0,0,14.383,0Zm3.136,8.49H22.9V10.1H17.519ZM14.8,16.917c0,3.983-4.145,3.852-4.145,3.852H3.863V7.721h6.79c2.064,0,3.692,1.139,3.692,3.474a2.265,2.265,0,0,1-1.991,2.483C14.979,13.678,14.8,16.917,14.8,16.917Zm5.6,2.058c2.169,0,2.092-1.4,2.092-1.4h2.3c0,3.725-4.465,3.47-4.465,3.47a4.629,4.629,0,0,1-5.013-4.988s0-5.013,5.013-5.013c5.282,0,4.542,5.663,4.542,5.663H18.106A2.122,2.122,0,0,0,20.4,18.975Z" fill="#fcb204"/>
          </g>
        </g>
        <path id="linkedin-5" data-name="linkedin" d="M13.808,0A13.808,13.808,0,1,0,27.616,13.808,13.809,13.809,0,0,0,13.808,0ZM9.8,20.874H6.433V10.756H9.8ZM8.114,9.375H8.092a1.753,1.753,0,1,1,.044-3.5,1.753,1.753,0,1,1-.022,3.5Zm13.807,11.5H18.559V15.461c0-1.36-.487-2.288-1.7-2.288A1.841,1.841,0,0,0,15.13,14.4a2.3,2.3,0,0,0-.111.821v5.65H11.656s.044-9.168,0-10.117h3.363v1.432a3.338,3.338,0,0,1,3.031-1.67c2.212,0,3.871,1.446,3.871,4.553Zm0,0" transform="translate(0 1.315)" fill="#fcb204"/>
      </g>
      <g id="Group_195" data-name="Group 195" transform="translate(1236.799 586.627)">
        <g id="behance-network-3" data-name="behance-network" transform="translate(43.396)">
          <g id="Group_189-3" data-name="Group 189">
            <path id="Path_213-3" data-name="Path 213" d="M28.015,35.475c0-1.357-.923-1.357-.923-1.357h-3.8V37.03h3.563C27.472,37.029,28.015,36.832,28.015,35.475Z" transform="translate(-16.439 -24.078)" fill="#fcb204"/>
            <path id="Path_214-3" data-name="Path 214" d="M27.092,50.846h-3.8v3.487h3.623c.545-.016,1.551-.186,1.551-1.7C28.468,50.828,27.092,50.846,27.092,50.846Z" transform="translate(-16.439 -35.883)" fill="#fcb204"/>
            <path id="Path_215-3" data-name="Path 215" d="M63.736,44.011a2.334,2.334,0,0,0-2.3,2.011h4.286A1.942,1.942,0,0,0,63.736,44.011Z" transform="translate(-43.358 -31.059)" fill="#fcb204"/>
            <path id="Path_216-3" data-name="Path 216" d="M14.383,0A14.383,14.383,0,1,0,28.766,14.383,14.383,14.383,0,0,0,14.383,0Zm3.136,8.49H22.9V10.1H17.519ZM14.8,16.917c0,3.983-4.145,3.852-4.145,3.852H3.863V7.721h6.79c2.064,0,3.692,1.139,3.692,3.474a2.265,2.265,0,0,1-1.991,2.483C14.979,13.678,14.8,16.917,14.8,16.917Zm5.6,2.058c2.169,0,2.092-1.4,2.092-1.4h2.3c0,3.725-4.465,3.47-4.465,3.47a4.629,4.629,0,0,1-5.013-4.988s0-5.013,5.013-5.013c5.282,0,4.542,5.663,4.542,5.663H18.106A2.122,2.122,0,0,0,20.4,18.975Z" fill="#fcb204"/>
          </g>
        </g>
        <path id="linkedin-6" data-name="linkedin" d="M13.808,0A13.808,13.808,0,1,0,27.616,13.808,13.809,13.809,0,0,0,13.808,0ZM9.8,20.874H6.433V10.756H9.8ZM8.114,9.375H8.092a1.753,1.753,0,1,1,.044-3.5,1.753,1.753,0,1,1-.022,3.5Zm13.807,11.5H18.559V15.461c0-1.36-.487-2.288-1.7-2.288A1.841,1.841,0,0,0,15.13,14.4a2.3,2.3,0,0,0-.111.821v5.65H11.656s.044-9.168,0-10.117h3.363v1.432a3.338,3.338,0,0,1,3.031-1.67c2.212,0,3.871,1.446,3.871,4.553Zm0,0" transform="translate(0 1.315)" fill="#fcb204"/>
      </g>
      <g id="Group_196" data-name="Group 196" transform="translate(858.358 705.801)">
        <g id="behance-network-4" data-name="behance-network" transform="translate(43.396)">
          <g id="Group_189-4" data-name="Group 189">
            <path id="Path_213-4" data-name="Path 213" d="M28.015,35.475c0-1.357-.923-1.357-.923-1.357h-3.8V37.03h3.563C27.472,37.029,28.015,36.832,28.015,35.475Z" transform="translate(-16.439 -24.078)" fill="#fcb204"/>
            <path id="Path_214-4" data-name="Path 214" d="M27.092,50.846h-3.8v3.487h3.623c.545-.016,1.551-.186,1.551-1.7C28.468,50.828,27.092,50.846,27.092,50.846Z" transform="translate(-16.439 -35.883)" fill="#fcb204"/>
            <path id="Path_215-4" data-name="Path 215" d="M63.736,44.011a2.334,2.334,0,0,0-2.3,2.011h4.286A1.942,1.942,0,0,0,63.736,44.011Z" transform="translate(-43.358 -31.059)" fill="#fcb204"/>
            <path id="Path_216-4" data-name="Path 216" d="M14.383,0A14.383,14.383,0,1,0,28.766,14.383,14.383,14.383,0,0,0,14.383,0Zm3.136,8.49H22.9V10.1H17.519ZM14.8,16.917c0,3.983-4.145,3.852-4.145,3.852H3.863V7.721h6.79c2.064,0,3.692,1.139,3.692,3.474a2.265,2.265,0,0,1-1.991,2.483C14.979,13.678,14.8,16.917,14.8,16.917Zm5.6,2.058c2.169,0,2.092-1.4,2.092-1.4h2.3c0,3.725-4.465,3.47-4.465,3.47a4.629,4.629,0,0,1-5.013-4.988s0-5.013,5.013-5.013c5.282,0,4.542,5.663,4.542,5.663H18.106A2.122,2.122,0,0,0,20.4,18.975Z" fill="#fcb204"/>
          </g>
        </g>
        <path id="linkedin-7" data-name="linkedin" d="M13.808,0A13.808,13.808,0,1,0,27.616,13.808,13.809,13.809,0,0,0,13.808,0ZM9.8,20.874H6.433V10.756H9.8ZM8.114,9.375H8.092a1.753,1.753,0,1,1,.044-3.5,1.753,1.753,0,1,1-.022,3.5Zm13.807,11.5H18.559V15.461c0-1.36-.487-2.288-1.7-2.288A1.841,1.841,0,0,0,15.13,14.4a2.3,2.3,0,0,0-.111.821v5.65H11.656s.044-9.168,0-10.117h3.363v1.432a3.338,3.338,0,0,1,3.031-1.67c2.212,0,3.871,1.446,3.871,4.553Zm0,0" transform="translate(0 1.315)" fill="#fcb204"/>
      </g>
    </g>
  </g>
</svg>
