<svg xmlns="http://www.w3.org/2000/svg" xmlns:xlink="http://www.w3.org/1999/xlink" width="176" height="169" viewBox="0 0 176 169">
  <defs>
    <clipPath id="clip-path">
      <ellipse id="Ellipse_30" data-name="Ellipse 30" cx="88" cy="84.5" rx="88" ry="84.5" transform="translate(-0.001 0)" fill="#6cba7f" stroke="#707070" stroke-width="1"/>
    </clipPath>
  </defs>
  <g id="Mask_Group_1" data-name="Mask Group 1" transform="translate(0.001 0)" clip-path="url(#clip-path)">
    <g id="User_Male_Side" data-name="User Male Side" transform="translate(3.722 0.22)">
      <g id="Glyph">
        <path id="Path_189" data-name="Path 189" d="M119.89,120.93a7.9,7.9,0,0,0,7.89-7.89,2.63,2.63,0,0,0-5.26,0,2.63,2.63,0,1,1-5.26,0V102.52a5.26,5.26,0,1,1,10.52,0,2.63,2.63,0,1,0,5.26,0,10.52,10.52,0,1,0-21.04,0v10.52A7.9,7.9,0,0,0,119.89,120.93Z" transform="translate(-38.358 -31.508)" fill="#6cba7f"/>
        <path id="Path_190" data-name="Path 190" d="M24.65,24.65a84.162,84.162,0,1,1,0,119.023,84.162,84.162,0,0,1,0-119.023Zm17.5,123.711a2.622,2.622,0,0,0,1.05,3.267,79.094,79.094,0,0,0,80.361.926,2.634,2.634,0,0,0,1.023-3.452q-.723-1.468-1.525-2.9A66.382,66.382,0,0,0,99.93,122.116l.012-3.764a2.633,2.633,0,0,1,2.63-2.63h11.651a7.871,7.871,0,0,0,7.664-6.016l3.978-16.267,6.871-3.123a5.26,5.26,0,0,0,2.528-7.141l-9.026-18.053A44.764,44.764,0,0,0,81.531,21.04H79.789a45.651,45.651,0,0,0-45.6,45.6,51.658,51.658,0,0,0,8.42,27.5,66.811,66.811,0,0,0,20.51,20.421v7.378A64.275,64.275,0,0,0,42.152,148.36Z" transform="translate(0 0)" fill="#6cba7f"/>
      </g>
    </g>
  </g>
</svg>
