<svg xmlns="http://www.w3.org/2000/svg" xmlns:xlink="http://www.w3.org/1999/xlink" width="2439" height="1085.688" viewBox="0 0 2439 1085.688">
  <defs>
    <linearGradient id="linear-gradient" x1="0.151" y1="0.315" x2="0.974" y2="1.132" gradientUnits="objectBoundingBox">
      <stop offset="0" stop-color="#6cba7f"/>
      <stop offset="0.381" stop-color="#66b677"/>
      <stop offset="0.971" stop-color="#56ab61"/>
      <stop offset="1" stop-color="#56ab60"/>
    </linearGradient>
    <linearGradient id="linear-gradient-2" x1="1.957" y1="0.054" x2="3.504" y2="-0.307" gradientUnits="objectBoundingBox">
      <stop offset="0" stop-color="#7ec396"/>
      <stop offset="0.47" stop-color="#77bf8e"/>
      <stop offset="1" stop-color="#6cba7f"/>
    </linearGradient>
  </defs>
  <g id="Group_338" data-name="Group 338" transform="translate(7 -2167)">
    <path id="Path_218" data-name="Path 218" d="M0,0H2439V1085.281H0Z" transform="translate(-7 2167)" fill="#6cba7f"/>
    <path id="Path_445" data-name="Path 445" d="M803.561,146.924c-206.337,0-373.608,167.272-373.608,373.608a373.337,373.337,0,0,0,19.31,118.855H568.24a262.837,262.837,0,0,1-27.568-117.56c0-145.9,118.288-264.145,264.185-264.145S1069,375.931,1069,521.828a263.351,263.351,0,0,1-27.528,117.56h116.385a373.334,373.334,0,0,0,19.31-118.855C1177.17,314.2,1009.9,146.924,803.561,146.924Z" transform="matrix(1, 0.017, -0.017, 1, 1250.658, 2592.854)" opacity="0.75" fill="url(#linear-gradient)"/>
    <path id="Path_481" data-name="Path 481" d="M233.893,480.379A344.377,344.377,0,0,0,6.511,157.8c2.122,37.351,2.547,73.126,2.638,109.992A243.3,243.3,0,0,1,134.269,479.56,243.389,243.389,0,0,1,3.024,696.513c7.943,36.381,5.669,74.551-1.364,110.811A344.347,344.347,0,0,0,233.893,480.379Z" transform="translate(-1.298 2440.904)" opacity="0.75" fill="url(#linear-gradient-2)"/>
  </g>
</svg>
