<svg xmlns="http://www.w3.org/2000/svg" xmlns:xlink="http://www.w3.org/1999/xlink" viewBox="0 0 1277.61 567.85"><defs><style>.cls-1{fill:#fff;}.cls-2{fill:none;}.cls-3{opacity:0.75;fill:url(#linear-gradient);}.cls-3,.cls-4{isolation:isolate;}.cls-4{opacity:0.24;fill:url(#linear-gradient-2);}</style><linearGradient id="linear-gradient" x1="-210.84" y1="783.33" x2="-210.4" y2="782.9" gradientTransform="matrix(747.22, 0, 0, -492.46, 158484.63, 386151.76)" gradientUnits="userSpaceOnUse"><stop offset="0" stop-color="#6cba7f"/><stop offset="0.38" stop-color="#66b677"/><stop offset="0.97" stop-color="#56ab61"/><stop offset="1" stop-color="#56ab60"/></linearGradient><linearGradient id="linear-gradient-2" x1="-263.15" y1="1357.44" x2="-54.13" y2="1220.84" gradientTransform="translate(6.63 -19.47) rotate(0.95)" gradientUnits="userSpaceOnUse"><stop offset="0" stop-color="#7ec396"/><stop offset="0.47" stop-color="#77bf8e"/><stop offset="1" stop-color="#6cba7f"/></linearGradient></defs><g id="Layer_2" data-name="Layer 2"><g id="Layer_1-2" data-name="Layer 1"><g id="Rectangle_177" data-name="Rectangle 177"><rect class="cls-1" width="1277.16" height="567.74"/><rect class="cls-2" x="0.26" y="0.26" width="1276.63" height="567.21"/></g><path id="Path_437" data-name="Path 437" class="cls-3" d="M1080.09,308.49c-108.67,0-196.76,88.09-196.76,196.76a196.48,196.48,0,0,0,10.17,62.6h62.66a139.12,139.12,0,1,1,249.23,0h61.3a196.76,196.76,0,0,0,10.17-62.6C1276.86,396.58,1188.76,308.49,1080.09,308.49Z"/><path class="cls-4" d="M1168.67,477h0a94.09,94.09,0,1,1,108.26-151.83q.48-24,.68-48c-.85-.47-1.71-.94-2.57-1.39a133.06,133.06,0,1,0-.74,235.92q-.3-23.46-.1-46.92A94.11,94.11,0,0,1,1168.67,477Z"/></g></g></svg>