<svg xmlns="http://www.w3.org/2000/svg" xmlns:xlink="http://www.w3.org/1999/xlink" viewBox="0 0 861 378.42"><defs><style>.cls-1{fill:url(#linear-gradient);}.cls-2{opacity:0.7;fill:url(#linear-gradient-2);}.cls-2,.cls-3,.cls-4,.cls-5{isolation:isolate;}.cls-3{opacity:0.24;fill:url(#linear-gradient-3);}.cls-4,.cls-5{opacity:0.75;}.cls-4{fill:url(#linear-gradient-4);}.cls-5{fill:url(#linear-gradient-5);}</style><linearGradient id="linear-gradient" x1="0.07" y1="189.21" x2="861" y2="189.21" gradientUnits="userSpaceOnUse"><stop offset="0" stop-color="#6cba7f"/><stop offset="0.59" stop-color="#5caf69"/><stop offset="1" stop-color="#56ab60"/></linearGradient><linearGradient id="linear-gradient-2" x1="66.68" y1="137.52" x2="363.92" y2="-56.73" gradientUnits="userSpaceOnUse"><stop offset="0" stop-color="#7ec396"/><stop offset="0.47" stop-color="#77bf8e"/><stop offset="1" stop-color="#6cba7f"/></linearGradient><linearGradient id="linear-gradient-3" x1="460.19" y1="264.4" x2="510.79" y2="231.34" xlink:href="#linear-gradient-2"/><linearGradient id="linear-gradient-4" x1="151.6" y1="169.46" x2="270.1" y2="91.97" xlink:href="#linear-gradient-2"/><linearGradient id="linear-gradient-5" x1="-547.99" y1="598.84" x2="-547.7" y2="598.55" gradientTransform="matrix(747.21, 12.7, 8.37, -492.46, 405083.89, 302122.66)" gradientUnits="userSpaceOnUse"><stop offset="0" stop-color="#6cba7f"/><stop offset="0.38" stop-color="#66b677"/><stop offset="0.97" stop-color="#56ab61"/><stop offset="1" stop-color="#56ab60"/></linearGradient></defs><g id="Layer_2" data-name="Layer 2"><g id="Layer_1-2" data-name="Layer 1"><path class="cls-1" d="M.07,0V183.55c.06,6.27.07,12.56.07,19,0-6.47,0-12.76-.07-19V378.42H861V0Z"/><path class="cls-2" d="M329.6.48a136.73,136.73,0,0,1-94,131.75A136.68,136.68,0,0,1,63.07,45.11h0A136.54,136.54,0,0,1,56.2,3.54C37.66,3.3,18.48,1.89,0,3.34A193.56,193.56,0,0,0,9.71,62c33.37,101.41,142.62,156.57,244,123.21A193.36,193.36,0,0,0,386.67,1.74C367.61,1.49,348.85,0,329.6.48Z"/><path class="cls-3" d="M857.47,40.44a61.77,61.77,0,0,1-36-6.15h0A61.8,61.8,0,0,1,791.24.46C782.62,1.6,774,3.1,765.39,2.72a87.53,87.53,0,0,0,44.88,54.39,87.31,87.31,0,0,0,48.6,9C857.6,57.77,860.68,48.71,857.47,40.44Z"/><path class="cls-4" d="M78.26,264.2a113.59,113.59,0,0,0-75-106.4c.7,12.32.84,24.12.87,36.28A80.25,80.25,0,0,1,45.4,263.93,80.28,80.28,0,0,1,2.11,335.49c2.62,12,1.87,24.59-.45,36.55A113.58,113.58,0,0,0,78.26,264.2Z"/><path id="Path_426" data-name="Path 426" class="cls-5" d="M722.76,204.62a129.93,129.93,0,0,0-126,169l41.34.7a91.8,91.8,0,1,1,164.45,2.8l40.44.68a129.91,129.91,0,0,0-120.2-173.22Z"/></g></g></svg>