<svg xmlns="http://www.w3.org/2000/svg" xmlns:xlink="http://www.w3.org/1999/xlink" width="2425" height="487" viewBox="0 0 2425 487">
  <defs>
    <linearGradient id="linear-gradient" x1="-5.554" y1="-3.084" x2="-4.717" y2="-2.537" gradientUnits="objectBoundingBox">
      <stop offset="0" stop-color="#7ec396"/>
      <stop offset="0.471" stop-color="#77bf8e"/>
      <stop offset="1" stop-color="#6cba7f"/>
    </linearGradient>
    <linearGradient id="linear-gradient-2" x1="3.78" y1="1.831" x2="3.779" y2="1.829" gradientUnits="objectBoundingBox">
      <stop offset="0" stop-color="#6cba7f"/>
      <stop offset="0.38" stop-color="#66b677"/>
      <stop offset="0.97" stop-color="#56ab61"/>
      <stop offset="1" stop-color="#56ab60"/>
    </linearGradient>
  </defs>
  <g id="Group_342" data-name="Group 342" transform="translate(0 -7879)">
    <rect id="Rectangle_179" data-name="Rectangle 179" width="2425" height="487" transform="translate(0 7879)" fill="#fff"/>
    <path id="Path_442" data-name="Path 442" d="M903.958,197.605c47.806-94.677,9.806-210.179-84.868-257.982S608.912-70.183,561.109,24.494,551.3,234.67,645.979,282.473,856.155,292.279,903.958,197.605ZM610.422,50.144a135.786,135.786,0,1,1,60.009,182.413A135.787,135.787,0,0,1,610.422,50.144Z" transform="translate(-314.864 7997.871)" opacity="0.24" fill="url(#linear-gradient)"/>
    <path id="Path_437" data-name="Path 437" d="M1198.732,308.49c174.187,0,315.387,141.2,315.387,315.386a314.941,314.941,0,0,1-16.3,100.341H1397.38a223,223,0,1,0-399.491,0H899.631a315.393,315.393,0,0,1-16.3-100.341C883.33,449.689,1024.545,308.49,1198.732,308.49Z" transform="translate(910.587 7641.464)" opacity="0.75" fill="url(#linear-gradient-2)"/>
  </g>
</svg>
